<svg width="26" height="13" viewBox="0 0 26 13" fill="none" xmlns="http://www.w3.org/2000/svg">
<path d="M4.21046 12.3745H5.1047C5.58265 12.3745 5.86017 12.1025 5.86017 11.6065V1.94254C5.86017 1.44654 5.61348 1.17453 5.18179 1.17453C4.68842 1.17453 4.42631 1.20654 4.0717 1.38253L1.23483 2.69454C0.81855 2.88653 0.664372 3.22254 0.803132 3.68653L0.95731 4.13453C1.09607 4.61454 1.45068 4.80654 1.8978 4.59854L3.47041 3.91053V11.6065C3.47041 12.1025 3.73251 12.3745 4.21046 12.3745Z" fill="#303969"/>
<path d="M12.0892 12.5505C14.7256 12.5505 16.6529 11.1585 16.6529 9.07854C16.6529 7.65454 15.5428 6.67854 14.6023 6.37454C15.3424 6.08654 16.1903 5.27053 16.1903 4.13453C16.1903 2.31054 14.5406 0.998535 12.0892 0.998535C9.63777 0.998535 7.97265 2.31054 7.97265 4.13453C7.97265 5.27053 8.82063 6.08654 9.56068 6.37454C8.55853 6.69454 7.51011 7.71854 7.51011 9.07854C7.51011 11.1585 9.42192 12.5505 12.0892 12.5505ZM12.1046 5.73454C10.9637 5.73454 10.347 5.06254 10.347 4.32654C10.347 3.62253 11.0562 2.99854 12.0892 2.99854C13.1068 2.99854 13.8006 3.62253 13.8006 4.32654C13.8006 5.01454 13.1684 5.73454 12.1046 5.73454ZM12.0892 10.5025C10.8095 10.5025 9.99238 9.76654 9.99238 8.90254C9.99238 8.02254 10.7324 7.30254 12.0892 7.30254C13.446 7.30254 14.1706 8.08654 14.1706 8.90254C14.1706 9.76654 13.338 10.5025 12.0892 10.5025Z" fill="#303969"/>
<path d="M20.9826 11.2705H22.3394C22.5861 11.2705 22.7248 11.1265 22.7248 10.8705V8.47054H25.0992C25.3459 8.47054 25.5 8.32654 25.5 8.05454V6.75854C25.5 6.50254 25.3459 6.35854 25.0992 6.35854H22.7248V3.95854C22.7248 3.68653 22.5861 3.54253 22.3394 3.54253H20.9826C20.7359 3.54253 20.5972 3.68653 20.5972 3.95854V6.35854H18.2074C17.9607 6.35854 17.822 6.50254 17.822 6.75854V8.05454C17.822 8.32654 17.9607 8.47054 18.2074 8.47054H20.5972V10.8705C20.5972 11.1265 20.7359 11.2705 20.9826 11.2705Z" fill="#303969"/>
</svg>
