<svg width="16" height="16" viewBox="0 0 16 16" fill="none" xmlns="http://www.w3.org/2000/svg">
<path d="M6.66822 3.73171C6.66822 3.13971 7.12562 2.66504 7.69608 2.66504C8.26654 2.66504 8.72393 3.13971 8.72393 3.73171C8.72393 4.32371 8.26654 4.79837 7.69608 4.79837C7.12562 4.79837 6.66822 4.32371 6.66822 3.73171ZM10.2657 8.53171C10.2634 8.19005 10.1648 7.85657 9.98221 7.57229C9.79959 7.28801 9.54085 7.06535 9.23786 6.93171C9.23786 6.01971 8.50808 5.28904 7.61385 5.33171C6.78129 5.37971 6.1543 6.15304 6.1543 7.01704V10.1317C6.1543 10.425 6.38556 10.665 6.66822 10.665H7.18215V12.5317C7.18215 12.9744 7.52648 13.3317 7.95304 13.3317C8.3796 13.3317 8.72393 12.9744 8.72393 12.5317V10.665H9.75178C10.0344 10.665 10.2657 10.425 10.2657 10.1317V8.53171Z" fill="#303969"/>
<path d="M8.2089 16C3.95816 16 0.5 12.4112 0.5 8C0.5 3.58875 3.95816 0 8.2089 0C12.4596 0 15.9178 3.58875 15.9178 8C15.9178 12.4112 12.4596 16 8.2089 16ZM8.2089 1.36125C4.68087 1.36125 1.81172 4.34 1.81172 8C1.81172 11.6612 4.68208 14.6387 8.2089 14.6387C11.7357 14.6387 14.6061 11.6612 14.6061 8C14.6061 4.34 11.7357 1.36125 8.2089 1.36125Z" fill="#303969"/>
<path d="M13.9155 12.9648L12.9001 14.016L2.50391 3.29979L3.51931 2.24854L13.9155 12.9648Z" fill="#303969"/>
</svg>
