<svg width="118" height="118" viewBox="0 0 118 118" fill="none" xmlns="http://www.w3.org/2000/svg">
<path opacity="0.083334" d="M62.54 35.4C62.54 31.4898 60.9551 28.32 59 28.32C57.0449 28.32 55.46 31.4898 55.46 35.4C55.46 39.3102 57.0449 42.48 59 42.48C60.9551 42.48 62.54 39.3102 62.54 35.4Z" fill="#303969"/>
<path opacity="0.166667" d="M73.8659 40.3318C75.821 36.9455 76.0333 33.4079 74.3401 32.4303C72.647 31.4528 69.6895 33.4055 67.7344 36.7918C65.7793 40.1781 65.567 43.7157 67.2601 44.6933C68.9533 45.6708 71.9108 43.7181 73.8659 40.3318Z" fill="#303969"/>
<path opacity="0.25" d="M81.2083 50.2657C84.5947 48.3106 86.5473 45.3532 85.5698 43.66C84.5923 41.9668 81.0547 42.1792 77.6684 44.1343C74.2821 46.0894 72.3294 49.0468 73.3069 50.74C74.2845 52.4332 77.822 52.2208 81.2083 50.2657Z" fill="#303969"/>
<path opacity="0.333334" d="M82.6002 62.54C86.5104 62.54 89.6802 60.9551 89.6802 59C89.6802 57.0449 86.5104 55.46 82.6002 55.46C78.69 55.46 75.5202 57.0449 75.5202 59C75.5202 60.9551 78.69 62.54 82.6002 62.54Z" fill="#303969"/>
<path opacity="0.416667" d="M77.6684 73.8657C81.0547 75.8208 84.5923 76.0332 85.5698 74.34C86.5474 72.6469 84.5947 69.6894 81.2084 67.7343C77.8221 65.7792 74.2845 65.5669 73.3069 67.26C72.3294 68.9532 74.2821 71.9107 77.6684 73.8657Z" fill="#303969"/>
<path opacity="0.5" d="M67.7343 81.2082C69.6894 84.5945 72.6469 86.5472 74.34 85.5696C76.0332 84.5921 75.8208 81.0545 73.8658 77.6682C71.9107 74.2819 68.9532 72.3292 67.26 73.3068C65.5669 74.2843 65.7792 77.8219 67.7343 81.2082Z" fill="#303969"/>
<path opacity="0.583334" d="M55.46 82.6C55.46 86.5102 57.0449 89.68 59 89.68C60.9551 89.68 62.54 86.5102 62.54 82.6C62.54 78.6898 60.9551 75.52 59 75.52C57.0449 75.52 55.46 78.6898 55.46 82.6Z" fill="#303969"/>
<path opacity="0.666667" d="M44.1341 77.6682C42.179 81.0545 41.9667 84.5921 43.6599 85.5697C45.353 86.5472 48.3105 84.5945 50.2656 81.2082C52.2207 77.8219 52.433 74.2843 50.7399 73.3067C49.0467 72.3292 46.0892 74.2819 44.1341 77.6682Z" fill="#303969"/>
<path opacity="0.75" d="M36.7917 67.7343C33.4053 69.6894 31.4527 72.6468 32.4302 74.34C33.4077 76.0332 36.9453 75.8208 40.3317 73.8657C43.718 71.9106 45.6707 68.9532 44.6931 67.26C43.7156 65.5668 40.178 65.7792 36.7917 67.7343Z" fill="#303969"/>
<path opacity="0.833334" d="M35.3998 55.46C31.4897 55.46 28.3198 57.0449 28.3198 59C28.3198 60.9551 31.4897 62.54 35.3998 62.54C39.31 62.54 42.4798 60.9551 42.4798 59C42.4798 57.0449 39.31 55.46 35.3998 55.46Z" fill="#303969"/>
<path opacity="0.916667" d="M40.3316 44.1343C36.9453 42.1792 33.4077 41.9668 32.4302 43.66C31.4526 45.3532 33.4053 48.3107 36.7916 50.2657C40.1779 52.2208 43.7155 52.4332 44.6931 50.74C45.6706 49.0469 43.7179 46.0894 40.3316 44.1343Z" fill="#303969"/>
<path d="M50.2657 36.7918C48.3106 33.4055 45.3531 31.4528 43.66 32.4303C41.9668 33.4079 42.1792 36.9455 44.1342 40.3318C46.0893 43.7181 49.0468 45.6708 50.74 44.6933C52.4331 43.7157 52.2208 40.1781 50.2657 36.7918Z" fill="#303969"/>
</svg>
