<svg width="20" height="20" viewBox="0 0 20 20" fill="none" xmlns="http://www.w3.org/2000/svg">
<path d="M12 10C12 11.1046 11.1046 12 10 12C8.89543 12 8 11.1046 8 10C8 8.89543 8.89543 8 10 8C11.1046 8 12 8.89543 12 10Z" stroke="#303969" stroke-width="2"/>
<path d="M10 16C13.3137 16 16 13.3137 16 10C16 6.68629 13.3137 4 10 4C6.68629 4 4 6.68629 4 10C4 13.3137 6.68629 16 10 16Z" stroke="#303969" stroke-width="2"/>
<path d="M16 10L19 10" stroke="#303969" stroke-width="2" stroke-linecap="round"/>
<path d="M1 10L4 10" stroke="#303969" stroke-width="2" stroke-linecap="round"/>
<path d="M10 4L10 1" stroke="#303969" stroke-width="2" stroke-linecap="round"/>
<path d="M10 19L10 16" stroke="#303969" stroke-width="2" stroke-linecap="round"/>
</svg>
