<svg width="20" height="26" viewBox="0 0 20 26" fill="none" xmlns="http://www.w3.org/2000/svg">
<path d="M9.47274 24.8759L9.47077 24.8736C8.25087 23.4309 6.17024 20.8251 4.40001 17.9068C2.60437 14.9467 1.2373 11.8385 1.2373 9.34842C1.2373 7.13952 2.12886 5.01778 3.72119 3.45086C5.31406 1.88341 7.47782 1 9.7373 1C11.9968 1 14.1606 1.88341 15.7534 3.45086C17.3457 5.01778 18.2373 7.13952 18.2373 9.34842C18.2373 11.8385 16.8702 14.9464 15.0763 17.9067C13.3079 20.8249 11.231 23.431 10.0174 24.8759C9.98601 24.9133 9.94561 24.9445 9.89834 24.9664C9.85102 24.9883 9.79863 25 9.74506 25C9.69149 25 9.63909 24.9883 9.59178 24.9664C9.54451 24.9445 9.50411 24.9133 9.47274 24.8759ZM5.34315 9.34803V9.34842C5.34315 10.2102 5.60291 11.0512 6.08765 11.7651C6.57225 12.4788 7.25933 13.0326 8.06017 13.359C8.86087 13.6854 9.74103 13.7705 10.59 13.6044C11.4391 13.4382 12.2212 13.0276 12.8365 12.422C13.4521 11.8163 13.8731 11.0426 14.0439 10.1979C14.2146 9.35308 14.1268 8.47757 13.7923 7.68279C13.4578 6.88818 12.8925 6.21163 12.1704 5.73681C11.4484 5.26212 10.6013 5.0097 9.73601 5.0097H9.73564C8.57596 5.01013 7.46072 5.46351 6.63588 6.27519C5.81049 7.08741 5.3436 8.19233 5.34315 9.34803Z" fill="white" stroke="white" stroke-width="2"/>
</svg>
