<svg width="17" height="16" viewBox="0 0 17 16" fill="none" xmlns="http://www.w3.org/2000/svg">
<path d="M12.8447 6.25631L12.1417 4.12057C12.0397 3.80962 11.8435 3.53912 11.581 3.34752C11.3185 3.15591 11.0031 3.05293 10.6795 3.05322H5.99355C5.66997 3.05293 5.35454 3.15591 5.09206 3.34752C4.82958 3.53912 4.63341 3.80962 4.53142 4.12057L3.82837 6.25631C3.64141 6.33553 3.48176 6.46893 3.36947 6.63977C3.25718 6.81061 3.19727 7.01124 3.19727 7.21646V9.81848C3.19727 10.2025 3.40489 10.5346 3.71119 10.7151V11.9001C3.71119 12.0381 3.76534 12.1705 3.86172 12.2681C3.9581 12.3657 4.08882 12.4205 4.22512 12.4205H4.73905C4.87535 12.4205 5.00607 12.3657 5.10245 12.2681C5.19883 12.1705 5.25298 12.0381 5.25298 11.9001V10.8593H11.4201V11.9001C11.4201 12.0381 11.4743 12.1705 11.5706 12.2681C11.667 12.3657 11.7977 12.4205 11.934 12.4205H12.448C12.5843 12.4205 12.715 12.3657 12.8114 12.2681C12.9077 12.1705 12.9619 12.0381 12.9619 11.9001V10.7151C13.1178 10.6246 13.2474 10.494 13.3376 10.3366C13.4279 10.1792 13.4755 10.0005 13.4758 9.81848V7.21646C13.4758 7.01124 13.4159 6.81061 13.3036 6.63977C13.1913 6.46893 13.0317 6.33553 12.8447 6.25631ZM5.99355 4.09403H10.679C10.9005 4.09403 11.0968 4.23662 11.1667 4.44999L11.7351 6.17565H4.93794L5.50583 4.44999C5.53993 4.34632 5.60538 4.25615 5.69292 4.19226C5.78046 4.12837 5.88564 4.09401 5.99355 4.09403ZM4.99601 9.29808C4.89474 9.29804 4.79447 9.27781 4.70093 9.23854C4.60738 9.19926 4.52239 9.14172 4.4508 9.06918C4.37922 8.99665 4.32245 8.91054 4.28372 8.81579C4.245 8.72104 4.22509 8.61949 4.22512 8.51695C4.22515 8.4144 4.24513 8.31287 4.28392 8.21814C4.3227 8.12342 4.37953 8.03735 4.45117 7.96487C4.5228 7.89238 4.60783 7.83489 4.7014 7.79568C4.79497 7.75647 4.89526 7.73631 4.99653 7.73634C5.20105 7.73641 5.39716 7.81875 5.54173 7.96524C5.6863 8.11173 5.76749 8.31037 5.76742 8.51747C5.76735 8.72457 5.68604 8.92316 5.54137 9.06955C5.3967 9.21594 5.20053 9.29814 4.99601 9.29808ZM11.6771 9.29808C11.5758 9.29804 11.4755 9.27781 11.382 9.23854C11.2884 9.19926 11.2034 9.14172 11.1319 9.06918C11.0603 8.99665 11.0035 8.91054 10.9648 8.81579C10.9261 8.72104 10.9061 8.61949 10.9062 8.51695C10.9062 8.4144 10.9262 8.31287 10.965 8.21814C11.0038 8.12342 11.0606 8.03735 11.1322 7.96487C11.2039 7.89238 11.2889 7.83489 11.3825 7.79568C11.476 7.75647 11.5763 7.73631 11.6776 7.73634C11.8821 7.73641 12.0782 7.81875 12.2228 7.96524C12.3674 8.11173 12.4485 8.31037 12.4485 8.51747C12.4484 8.72457 12.3671 8.92316 12.2224 9.06955C12.0778 9.21594 11.8816 9.29814 11.6771 9.29808Z" fill="#303969"/>
<path d="M8.33536 15.8045C4.08463 15.8045 0.626465 12.3028 0.626465 7.99846C0.626465 3.69414 4.08463 0.192383 8.33536 0.192383C12.5861 0.192383 16.0443 3.69414 16.0443 7.99846C16.0443 12.3028 12.5861 15.8045 8.33536 15.8045ZM8.33536 1.52064C4.80734 1.52064 1.93818 4.42718 1.93818 7.99846C1.93818 11.571 4.80854 14.4763 8.33536 14.4763C11.8622 14.4763 14.7325 11.571 14.7325 7.99846C14.7325 4.42718 11.8622 1.52064 8.33536 1.52064Z" fill="#303969"/>
<path d="M14.0425 12.8432L13.0271 13.8689L2.63086 3.41248L3.64627 2.38672L14.0425 12.8432Z" fill="#303969"/>
</svg>
