<svg width="19" height="26" viewBox="0 0 19 26" fill="none" xmlns="http://www.w3.org/2000/svg">
<path d="M9.23543 24.8759L9.23346 24.8736C8.01356 23.4309 5.93294 20.8251 4.1627 17.9068C2.36707 14.9467 1 11.8385 1 9.34842C1 7.13952 1.89156 5.01778 3.48388 3.45086C5.07675 1.88341 7.24052 1 9.5 1C11.7595 1 13.9232 1.88341 15.5161 3.45086C17.1084 5.01778 18 7.13952 18 9.34842C18 11.8385 16.6329 14.9464 14.839 17.9067C13.0705 20.825 10.9935 23.4312 9.77991 24.8761C9.74856 24.9134 9.70822 24.9446 9.66103 24.9664C9.61372 24.9883 9.56133 25 9.50776 25C9.45418 25 9.40179 24.9883 9.35448 24.9664C9.30721 24.9445 9.26681 24.9133 9.23543 24.8759ZM5.10585 9.34803V9.34842C5.10585 10.2102 5.36561 11.0512 5.85034 11.7651C6.33495 12.4788 7.02202 13.0326 7.82286 13.359C8.62356 13.6854 9.50373 13.7705 10.3527 13.6044C11.2018 13.4382 11.9839 13.0276 12.5992 12.422C13.2148 11.8163 13.6358 11.0426 13.8065 10.1979C13.9773 9.35308 13.8895 8.47757 13.555 7.68279C13.2205 6.88818 12.6552 6.21163 11.9331 5.73681C11.2111 5.26212 10.364 5.0097 9.49871 5.0097H9.49833C8.33865 5.01013 7.22342 5.46351 6.39858 6.27519C5.57319 7.08741 5.1063 8.19233 5.10585 9.34803Z" stroke="#303969" stroke-width="2"/>
</svg>
